<svg width="24" height="24" viewBox="0 0 24 24" fill="none" xmlns="http://www.w3.org/2000/svg">
<g clip-path="url(#clip0_7_980)">
<path fill-rule="evenodd" clip-rule="evenodd" d="M12 24C18.6274 24 24 18.6274 24 12C24 5.37258 18.6274 0 12 0C5.37258 0 0 5.37258 0 12C0 18.6274 5.37258 24 12 24ZM16.5962 7.19711C16.2057 6.80658 15.5725 6.80658 15.182 7.19711L12 10.3791L8.81802 7.19711C8.4275 6.80658 7.79433 6.80658 7.40381 7.19711L7.05025 7.55066C6.65973 7.94118 6.65973 8.57435 7.05025 8.96487L10.2322 12.1469L6.6967 15.6824C6.30618 16.0729 6.30617 16.7061 6.6967 17.0966L7.05025 17.4502C7.44078 17.8407 8.07394 17.8407 8.46447 17.4502L12 13.9146L15.5355 17.4502C15.9261 17.8407 16.5592 17.8407 16.9497 17.4502L17.3033 17.0966C17.6938 16.7061 17.6938 16.0729 17.3033 15.6824L13.7678 12.1469L16.9497 8.96487C17.3403 8.57435 17.3403 7.94118 16.9497 7.55066L16.5962 7.19711Z" fill="#F95A5A"/>
</g>
<defs>
<clipPath id="clip0_7_980">
<rect width="24" height="24" fill="white"/>
</clipPath>
</defs>
</svg>
