<svg width="22" height="25" viewBox="0 0 22 25" fill="none" xmlns="http://www.w3.org/2000/svg">
<g clip-path="url(#clip0_8_1203)">
<path d="M3.87744 2.4758C2.22275 2.4758 0.877441 3.82111 0.877441 5.4758V20.4758C0.877441 22.1305 2.22275 23.4758 3.87744 23.4758H18.8774C20.5321 23.4758 21.8774 22.1305 21.8774 20.4758V5.4758C21.8774 3.82111 20.5321 2.4758 18.8774 2.4758H3.87744ZM10.2524 17.1008V14.1008H7.25244C6.629 14.1008 6.12744 13.5992 6.12744 12.9758C6.12744 12.3524 6.629 11.8508 7.25244 11.8508H10.2524V8.8508C10.2524 8.22736 10.754 7.7258 11.3774 7.7258C12.0009 7.7258 12.5024 8.22736 12.5024 8.8508V11.8508H15.5024C16.1259 11.8508 16.6274 12.3524 16.6274 12.9758C16.6274 13.5992 16.1259 14.1008 15.5024 14.1008H12.5024V17.1008C12.5024 17.7242 12.0009 18.2258 11.3774 18.2258C10.754 18.2258 10.2524 17.7242 10.2524 17.1008Z" fill="white"/>
</g>
<defs>
<clipPath id="clip0_8_1203">
<rect x="0.877441" y="0.9758" width="21" height="24" rx="5" fill="white"/>
</clipPath>
</defs>
</svg>
