<svg width="40" height="46" viewBox="0 0 40 46" fill="none" xmlns="http://www.w3.org/2000/svg">
<path d="M35.4688 0.625C37.666 0.625 39.6875 2.64648 39.6875 4.84375V41.4062C39.6875 43.6914 37.666 45.625 35.4688 45.625H4.53125C2.24609 45.625 0.3125 43.6914 0.3125 41.4062V4.84375C0.3125 2.64648 2.24609 0.625 4.53125 0.625H35.4688ZM11.5625 38.9453V35.5176C11.5625 34.9902 10.9473 34.375 10.4199 34.375H6.99219C6.46484 34.375 5.9375 34.9902 5.9375 35.5176V38.9453C5.9375 39.4727 6.46484 40 6.99219 40H10.4199C10.9473 40 11.5625 39.4727 11.5625 38.9453ZM11.5625 27.6953V24.2676C11.5625 23.7402 10.9473 23.125 10.4199 23.125H6.99219C6.46484 23.125 5.9375 23.7402 5.9375 24.2676V27.6953C5.9375 28.2227 6.46484 28.75 6.99219 28.75H10.4199C10.9473 28.75 11.5625 28.2227 11.5625 27.6953ZM22.8125 38.9453V35.5176C22.8125 34.9902 22.1973 34.375 21.6699 34.375H18.2422C17.7148 34.375 17.1875 34.9902 17.1875 35.5176V38.9453C17.1875 39.4727 17.7148 40 18.2422 40H21.6699C22.1973 40 22.8125 39.4727 22.8125 38.9453ZM22.8125 27.6953V24.2676C22.8125 23.7402 22.1973 23.125 21.6699 23.125H18.2422C17.7148 23.125 17.1875 23.7402 17.1875 24.2676V27.6953C17.1875 28.2227 17.7148 28.75 18.2422 28.75H21.6699C22.1973 28.75 22.8125 28.2227 22.8125 27.6953ZM34.0625 38.9453V24.2676C34.0625 23.7402 33.4473 23.125 32.9199 23.125H29.4922C28.9648 23.125 28.4375 23.7402 28.4375 24.2676V38.9453C28.4375 39.4727 28.9648 40 29.4922 40H32.9199C33.4473 40 34.0625 39.4727 34.0625 38.9453ZM34.0625 16.4453V7.39258C34.0625 6.86523 33.4473 6.25 32.9199 6.25H6.99219C6.46484 6.25 5.9375 6.86523 5.9375 7.39258V16.4453C5.9375 16.9727 6.46484 17.5 6.99219 17.5H32.9199C33.4473 17.5 34.0625 16.9727 34.0625 16.4453Z" fill="white"/>
</svg>
