<svg width="40" height="46" viewBox="0 0 40 46" fill="none" xmlns="http://www.w3.org/2000/svg">
<path d="M0.3125 41.4062V17.5H39.6875V41.4062C39.6875 43.7793 37.7539 45.625 35.4688 45.625H4.53125C2.1582 45.625 0.3125 43.7793 0.3125 41.4062ZM28.4375 24.1797V27.6953C28.4375 28.3105 28.877 28.75 29.4922 28.75H33.0078C33.5352 28.75 34.0625 28.3105 34.0625 27.6953V24.1797C34.0625 23.6523 33.5352 23.125 33.0078 23.125H29.4922C28.877 23.125 28.4375 23.6523 28.4375 24.1797ZM28.4375 35.4297V38.9453C28.4375 39.5605 28.877 40 29.4922 40H33.0078C33.5352 40 34.0625 39.5605 34.0625 38.9453V35.4297C34.0625 34.9023 33.5352 34.375 33.0078 34.375H29.4922C28.877 34.375 28.4375 34.9023 28.4375 35.4297ZM17.1875 24.1797V27.6953C17.1875 28.3105 17.627 28.75 18.2422 28.75H21.7578C22.2852 28.75 22.8125 28.3105 22.8125 27.6953V24.1797C22.8125 23.6523 22.2852 23.125 21.7578 23.125H18.2422C17.627 23.125 17.1875 23.6523 17.1875 24.1797ZM17.1875 35.4297V38.9453C17.1875 39.5605 17.627 40 18.2422 40H21.7578C22.2852 40 22.8125 39.5605 22.8125 38.9453V35.4297C22.8125 34.9023 22.2852 34.375 21.7578 34.375H18.2422C17.627 34.375 17.1875 34.9023 17.1875 35.4297ZM5.9375 24.1797V27.6953C5.9375 28.3105 6.37695 28.75 6.99219 28.75H10.5078C11.0352 28.75 11.5625 28.3105 11.5625 27.6953V24.1797C11.5625 23.6523 11.0352 23.125 10.5078 23.125H6.99219C6.37695 23.125 5.9375 23.6523 5.9375 24.1797ZM5.9375 35.4297V38.9453C5.9375 39.5605 6.37695 40 6.99219 40H10.5078C11.0352 40 11.5625 39.5605 11.5625 38.9453V35.4297C11.5625 34.9023 11.0352 34.375 10.5078 34.375H6.99219C6.37695 34.375 5.9375 34.9023 5.9375 35.4297ZM35.4688 6.25C37.7539 6.25 39.6875 8.18359 39.6875 10.4688V14.6875H0.3125V10.4688C0.3125 8.18359 2.1582 6.25 4.53125 6.25H8.75V2.03125C8.75 1.32812 9.36523 0.625 10.1562 0.625H12.9688C13.6719 0.625 14.375 1.32812 14.375 2.03125V6.25H25.625V2.03125C25.625 1.32812 26.2402 0.625 27.0312 0.625H29.8438C30.5469 0.625 31.25 1.32812 31.25 2.03125V6.25H35.4688Z" fill="white"/>
</svg>
