<svg width="24" height="24" viewBox="0 0 24 24" fill="none" xmlns="http://www.w3.org/2000/svg">
<g clip-path="url(#clip0_64_100)">
<path d="M12 24C18.6274 24 24 18.6274 24 12C24 5.37258 18.6274 0 12 0C5.37258 0 0 5.37258 0 12C0 18.6274 5.37258 24 12 24Z" fill="#4BAE4F"/>
<mask id="mask0_64_100" style="mask-type:luminance" maskUnits="userSpaceOnUse" x="6" y="6" width="12" height="12">
<path d="M18 6H6V18H18V6Z" fill="white"/>
</mask>
<g mask="url(#mask0_64_100)">
<path d="M9.86484 6.57612C9.68438 6.14018 9.20859 5.90815 8.75391 6.03237L6.69141 6.59487C6.28359 6.70737 6 7.07768 6 7.49955C6 13.298 10.7016 17.9995 16.5 17.9995C16.9219 17.9995 17.2922 17.7159 17.4047 17.3081L17.9672 15.2456C18.0914 14.7909 17.8594 14.3152 17.4234 14.1347L15.1734 13.1972C14.7914 13.0378 14.3484 13.148 14.0883 13.4691L13.1414 14.6245C11.4914 13.8441 10.1555 12.5081 9.375 10.8581L10.5305 9.91362C10.8516 9.65112 10.9617 9.21049 10.8023 8.82846L9.86484 6.57846V6.57612Z" fill="white"/>
</g>
</g>
<defs>
<clipPath id="clip0_64_100">
<rect width="24" height="24" fill="white"/>
</clipPath>
</defs>
</svg>
