<svg width="44" height="44" viewBox="0 0 44 44" fill="none" xmlns="http://www.w3.org/2000/svg">
<g clip-path="url(#clip0_7_1280)">
<path d="M22 44C34.1503 44 44 34.1503 44 22C44 9.84974 34.1503 0 22 0C9.84974 0 0 9.84974 0 22C0 34.1503 9.84974 44 22 44Z" fill="#425894"/>
<path d="M34 22.073C34 15.4037 28.629 10 22 10C15.371 10 10 15.4037 10 22.073C10 28.0988 14.3882 33.0935 20.125 34V25.563H17.0766V22.073H20.125V19.4131C20.125 16.3875 21.9153 14.7163 24.6574 14.7163C25.9706 14.7163 27.3439 14.9519 27.3439 14.9519V17.9215H25.8303C24.34 17.9215 23.875 18.8523 23.875 19.8069V22.073H27.2031L26.6708 25.563H23.875V34C29.6118 33.0935 34 28.0988 34 22.073Z" fill="white"/>
</g>
<defs>
<clipPath id="clip0_7_1280">
<rect width="44" height="44" fill="white"/>
</clipPath>
</defs>
</svg>
