<svg width="23" height="23" viewBox="0 0 23 23" fill="none" xmlns="http://www.w3.org/2000/svg">
<g clip-path="url(#clip0_7_918)">
<path d="M0 5.78759V8.30545H3.59567L0 5.78759ZM2.97978 19.8054H8.30556V16.0763L2.97978 19.8054ZM14.6944 16.0769V19.8054H20.0196L14.6944 16.0769ZM0 14.6943V17.2122L3.59694 14.6943H0ZM20.0209 3.19434H14.6944V6.92353L20.0209 3.19434ZM23 17.2128V14.6943H19.4024L23 17.2128ZM23 8.30545V5.78759L19.4037 8.30545H23ZM8.30556 3.19434H2.97978L8.30556 6.92353V3.19434Z" fill="#00247D"/>
<path d="M16.0619 14.6944L22.2668 19.0394C22.5699 18.7273 22.7876 18.3425 22.8993 17.922L18.2898 14.6944H16.0619ZM8.30584 14.6944H6.93798L0.733725 19.0388C1.06659 19.3774 1.49336 19.6195 1.97189 19.732L8.30584 15.2968V14.6944ZM14.6947 8.30546H16.0626L22.2668 3.96102C21.9283 3.61747 21.4991 3.37709 21.0293 3.26782L14.6947 7.70299V8.30546ZM6.93798 8.30546L0.733725 3.96102C0.430862 4.27342 0.212912 4.65807 0.100586 5.07843L4.71017 8.30546H6.93798Z" fill="#CF1B2B"/>
<path d="M23 13.4166H13.4167V19.8054H14.6944V16.0769L20.0196 19.8054H20.4444C20.7839 19.8055 21.1199 19.7378 21.4328 19.6062C21.7457 19.4747 22.0291 19.282 22.2666 19.0394L16.0617 14.6943H18.2895L22.8991 17.922C22.9585 17.7067 23 17.4837 23 17.2499V17.2128L19.4024 14.6943H23V13.4166ZM0 13.4166V14.6943H3.59694L0 17.2122V17.2499C0 17.9469 0.280472 18.5775 0.733444 19.0388L6.93769 14.6943H8.30556V15.2968L1.97161 19.7313C2.15944 19.7761 2.35367 19.8054 2.55556 19.8054H2.97978L8.30556 16.0763V19.8054H9.58333V13.4166H0ZM23 5.74989C23.0004 5.08032 22.7369 4.43758 22.2666 3.961L16.0623 8.30545H14.6944V7.70298L21.029 3.26781C20.8377 3.22087 20.6415 3.19621 20.4444 3.19434H20.0209L14.6944 6.92353V3.19434H13.4167V9.58322H23V8.30545H19.4037L23 5.78759V5.74989ZM8.30556 3.19434V6.92353L2.97978 3.19434H2.55556C2.21606 3.19419 1.87997 3.26194 1.56705 3.3936C1.25413 3.52527 0.970705 3.71818 0.733444 3.961L6.93769 8.30545H4.70989L0.100306 5.07842C0.0369151 5.29673 0.00317746 5.52258 0 5.74989L0 5.78759L3.59567 8.30545H0V9.58322H9.58333V3.19434H8.30556Z" fill="#EEEEEE"/>
<path d="M13.4167 9.58322V3.19434H9.58333V9.58322H0V13.4166H9.58333V19.8054H13.4167V13.4166H23V9.58322H13.4167Z" fill="#CF1B2B"/>
</g>
<defs>
<clipPath id="clip0_7_918">
<rect width="23" height="23" fill="white"/>
</clipPath>
</defs>
</svg>
