<svg width="21" height="18" viewBox="0 0 21 18" fill="none" xmlns="http://www.w3.org/2000/svg">
<g clip-path="url(#clip0_1_147)">
<path d="M8.4 0.600006H18.9C20.0583 0.600006 21 1.54172 21 2.70001V10.05C21 11.2083 20.0583 12.15 18.9 12.15H8.4C7.24172 12.15 6.3 11.2083 6.3 10.05V2.70001C6.3 1.54172 7.24172 0.600006 8.4 0.600006ZM15.6187 4.1011C15.4711 3.88126 15.225 3.75001 14.9625 3.75001C14.7 3.75001 14.4539 3.88126 14.3062 4.1011L12.4687 6.85735L11.9011 6.14532C11.7502 5.95829 11.5237 5.85001 11.2875 5.85001C11.0512 5.85001 10.8216 5.95829 10.6739 6.14532L8.5739 8.77032C8.38359 9.00657 8.3475 9.33141 8.47875 9.60376C8.61 9.8761 8.88562 10.05 9.1875 10.05H11.8125H13.3875H18.1125C18.4045 10.05 18.6703 9.88922 18.8081 9.63329C18.9459 9.37735 18.9295 9.06563 18.7687 8.8261L15.6187 4.1011ZM11.025 3.75001C11.025 3.47153 10.9144 3.20446 10.7175 3.00754C10.5205 2.81063 10.2535 2.70001 9.975 2.70001C9.69652 2.70001 9.42945 2.81063 9.23254 3.00754C9.03562 3.20446 8.925 3.47153 8.925 3.75001C8.925 4.02848 9.03562 4.29555 9.23254 4.49247C9.42945 4.68938 9.69652 4.80001 9.975 4.80001C10.2535 4.80001 10.5205 4.68938 10.7175 4.49247C10.9144 4.29555 11.025 4.02848 11.025 3.75001ZM2.1 4.80001H5.25V13.2V14.25C5.25 14.8308 5.71922 15.3 6.3 15.3H10.5C11.0808 15.3 11.55 14.8308 11.55 14.25V13.2H16.8V15.3C16.8 16.4583 15.8583 17.4 14.7 17.4H2.1C0.941719 17.4 0 16.4583 0 15.3V6.90001C0 5.74172 0.941719 4.80001 2.1 4.80001ZM2.3625 6.90001C2.07375 6.90001 1.8375 7.13626 1.8375 7.42501V7.95001C1.8375 8.23876 2.07375 8.47501 2.3625 8.47501H2.8875C3.17625 8.47501 3.4125 8.23876 3.4125 7.95001V7.42501C3.4125 7.13626 3.17625 6.90001 2.8875 6.90001H2.3625ZM2.3625 10.3125C2.07375 10.3125 1.8375 10.5488 1.8375 10.8375V11.3625C1.8375 11.6513 2.07375 11.8875 2.3625 11.8875H2.8875C3.17625 11.8875 3.4125 11.6513 3.4125 11.3625V10.8375C3.4125 10.5488 3.17625 10.3125 2.8875 10.3125H2.3625ZM2.3625 13.725C2.07375 13.725 1.8375 13.9613 1.8375 14.25V14.775C1.8375 15.0638 2.07375 15.3 2.3625 15.3H2.8875C3.17625 15.3 3.4125 15.0638 3.4125 14.775V14.25C3.4125 13.9613 3.17625 13.725 2.8875 13.725H2.3625ZM13.3875 14.25V14.775C13.3875 15.0638 13.6237 15.3 13.9125 15.3H14.4375C14.7262 15.3 14.9625 15.0638 14.9625 14.775V14.25C14.9625 13.9613 14.7262 13.725 14.4375 13.725H13.9125C13.6237 13.725 13.3875 13.9613 13.3875 14.25Z" fill="white"/>
</g>
<defs>
<clipPath id="clip0_1_147">
<rect width="21" height="16.8" fill="white" transform="translate(0 0.600006)"/>
</clipPath>
</defs>
</svg>
