<svg width="17" height="16" viewBox="0 0 17 16" fill="none" xmlns="http://www.w3.org/2000/svg">
<path d="M8.10889 16C12.5276 16 16.1089 12.4187 16.1089 8C16.1089 3.58125 12.5276 0 8.10889 0C3.69014 0 0.108887 3.58125 0.108887 8C0.108887 12.4187 3.69014 16 8.10889 16ZM6.85889 10.5H7.60889V8.5H6.85889C6.44326 8.5 6.10889 8.16562 6.10889 7.75C6.10889 7.33437 6.44326 7 6.85889 7H8.35889C8.77451 7 9.10889 7.33437 9.10889 7.75V10.5H9.35889C9.77451 10.5 10.1089 10.8344 10.1089 11.25C10.1089 11.6656 9.77451 12 9.35889 12H6.85889C6.44326 12 6.10889 11.6656 6.10889 11.25C6.10889 10.8344 6.44326 10.5 6.85889 10.5ZM8.10889 6C7.55577 6 7.10889 5.55312 7.10889 5C7.10889 4.44688 7.55577 4 8.10889 4C8.66202 4 9.10889 4.44688 9.10889 5C9.10889 5.55312 8.66202 6 8.10889 6Z" fill="#D9D9D9"/>
</svg>
