<svg width="45" height="44" viewBox="0 0 45 44" fill="none" xmlns="http://www.w3.org/2000/svg">
<g clip-path="url(#clip0_7_1285)">
<path d="M22.0288 44C34.1791 44 44.0288 34.1503 44.0288 22C44.0288 9.84974 34.1791 0 22.0288 0C9.87854 0 0.0288086 9.84974 0.0288086 22C0.0288086 34.1503 9.87854 44 22.0288 44Z" fill="#262626"/>
<path d="M22.0315 15.8467C18.6262 15.8467 15.8796 18.594 15.8796 22C15.8796 25.406 18.6262 28.1533 22.0315 28.1533C25.4367 28.1533 28.1834 25.406 28.1834 22C28.1834 18.594 25.4367 15.8467 22.0315 15.8467ZM22.0315 26.0004C19.8309 26.0004 18.0319 24.2064 18.0319 22C18.0319 19.7936 19.8256 17.9996 22.0315 17.9996C24.2374 17.9996 26.031 19.7936 26.031 22C26.031 24.2064 24.232 26.0004 22.0315 26.0004ZM29.87 15.595C29.87 16.3929 29.2275 17.0302 28.435 17.0302C27.6373 17.0302 27.0001 16.3876 27.0001 15.595C27.0001 14.8024 27.6426 14.1598 28.435 14.1598C29.2275 14.1598 29.87 14.8024 29.87 15.595ZM33.9445 17.0517C33.8535 15.1291 33.4144 13.4261 32.0063 12.023C30.6035 10.6199 28.9009 10.1807 26.9787 10.0843C24.9977 9.9719 19.0599 9.9719 17.0789 10.0843C15.1621 10.1754 13.4595 10.6145 12.0513 12.0176C10.6432 13.4207 10.2095 15.1237 10.1131 17.0463C10.0007 19.0278 10.0007 24.9669 10.1131 26.9483C10.2041 28.8709 10.6432 30.5739 12.0513 31.977C13.4595 33.3801 15.1567 33.8193 17.0789 33.9157C19.0599 34.0281 24.9977 34.0281 26.9787 33.9157C28.9009 33.8246 30.6035 33.3855 32.0063 31.977C33.4091 30.5739 33.8481 28.8709 33.9445 26.9483C34.0569 24.9669 34.0569 19.0331 33.9445 17.0517ZM31.3852 29.0744C30.9676 30.1241 30.1591 30.9327 29.1043 31.3558C27.5248 31.9824 23.7769 31.8378 22.0315 31.8378C20.286 31.8378 16.5328 31.977 14.9586 31.3558C13.9092 30.9381 13.1007 30.1294 12.6778 29.0744C12.0513 27.4946 12.1959 23.7458 12.1959 22C12.1959 20.2542 12.0567 16.5001 12.6778 14.9256C13.0954 13.8759 13.9039 13.0673 14.9586 12.6442C16.5381 12.0176 20.286 12.1622 22.0315 12.1622C23.7769 12.1622 27.5302 12.023 29.1043 12.6442C30.1537 13.0619 30.9622 13.8706 31.3852 14.9256C32.0116 16.5054 31.8671 20.2542 31.8671 22C31.8671 23.7458 32.0116 27.4999 31.3852 29.0744Z" fill="white"/>
</g>
<defs>
<clipPath id="clip0_7_1285">
<rect width="44" height="44" fill="white" transform="translate(0.0288086)"/>
</clipPath>
</defs>
</svg>
