<svg width="60" height="60" viewBox="0 0 61 60" fill="currentColor" xmlns="http://www.w3.org/2000/svg">
<path d="M30.125 7.5C22.8969 7.5 17 13.3969 17 20.625C17 25.0856 19.2688 29.0325 22.6831 31.4062C14.9863 34.41 9.5 41.91 9.5 50.625H13.25C13.25 42.3787 19.2331 35.4862 27.0781 34.0425L28.25 37.5H32L33.1719 34.0425C41.0169 35.4862 47 42.3787 47 50.625H50.75C50.75 41.91 45.2637 34.41 37.5669 31.4062C40.9794 29.0325 43.25 25.0856 43.25 20.625C43.25 13.3969 37.3531 7.5 30.125 7.5ZM30.125 11.25C35.3244 11.25 39.5 15.4256 39.5 20.625C39.5 25.8244 35.3244 30 30.125 30C24.9256 30 20.75 25.8244 20.75 20.625C20.75 15.4256 24.9256 11.25 30.125 11.25ZM28.25 39.375L26.375 50.625H33.875L32 39.375H28.25Z" fill="currentColor"/>
</svg>
