<svg width="21" height="21" viewBox="0 0 21 21" fill="none" xmlns="http://www.w3.org/2000/svg">
<path d="M0.385546 11.427C-0.12715 10.9143 -0.12715 10.0816 0.385546 9.56895L5.63555 4.31895C6.14824 3.80625 6.98086 3.80625 7.49356 4.31895C8.00625 4.83164 8.00625 5.66426 7.49356 6.17695L4.48301 9.1875H13.125C13.851 9.1875 14.4375 9.77402 14.4375 10.5C14.4375 11.226 13.851 11.8125 13.125 11.8125H4.48301L7.49356 14.823C8.00625 15.3357 8.00625 16.1684 7.49356 16.6811C6.98086 17.1938 6.14824 17.1938 5.63555 16.6811L0.385546 11.4311V11.427ZM14.4375 3.9375C13.7115 3.9375 13.125 3.35098 13.125 2.625C13.125 1.89902 13.7115 1.3125 14.4375 1.3125H17.0625C19.2363 1.3125 21 3.07617 21 5.25V15.75C21 17.9238 19.2363 19.6875 17.0625 19.6875H14.4375C13.7115 19.6875 13.125 19.101 13.125 18.375C13.125 17.649 13.7115 17.0625 14.4375 17.0625H17.0625C17.7885 17.0625 18.375 16.476 18.375 15.75V5.25C18.375 4.52402 17.7885 3.9375 17.0625 3.9375H14.4375Z" fill="white"/>
</svg>
