<svg width="60" height="60" viewBox="0 0 60 60" fill="none" xmlns="http://www.w3.org/2000/svg">
<path d="M30 7.5C35.525 7.5 40 11.975 40 17.5C40 23.025 35.525 27.5 30 27.5C24.475 27.5 20 23.025 20 17.5C20 11.975 24.475 7.5 30 7.5ZM40 33.85C40 36.5 39.3 42.675 34.525 49.575L32.5 37.5L34.85 32.8C33.3 32.625 31.675 32.5 30 32.5C28.325 32.5 26.7 32.625 25.15 32.8L27.5 37.5L25.475 49.575C20.7 42.675 20 36.5 20 33.85C14.025 35.6 10 38.75 10 42.5V52.5H50V42.5C50 38.75 46 35.6 40 33.85Z" fill="white"/>
</svg>
