<svg width="60" height="60" viewBox="0 0 61 60" fill="none" xmlns="http://www.w3.org/2000/svg">
<path d="M44.248 16.25L57.998 22.5V55L40.498 47.5M40.498 47.5L20.498 55M40.498 47.5V30M20.498 55L2.99805 47.5V15L15.498 20M20.498 55V30M30.498 40.6825C30.498 40.6825 15.498 28.75 15.498 17.5C15.498 8.125 22.998 2.5 30.498 2.5C37.998 2.5 45.498 8.125 45.498 17.5C45.498 28.75 30.498 40.6825 30.498 40.6825ZM32.998 17.5C32.998 16.837 32.7347 16.2011 32.2658 15.7322C31.797 15.2634 31.1611 15 30.498 15C29.835 15 29.1991 15.2634 28.7303 15.7322C28.2614 16.2011 27.998 16.837 27.998 17.5C27.998 18.163 28.2614 18.7989 28.7303 19.2678C29.1991 19.7366 29.835 20 30.498 20C31.1611 20 31.797 19.7366 32.2658 19.2678C32.7347 18.7989 32.998 18.163 32.998 17.5Z" stroke="#3A3A3A" stroke-width="3"/>
</svg>
