<svg width="60" height="60" viewBox="0 0 60 60" fill="none" xmlns="http://www.w3.org/2000/svg">
<path d="M35.0271 2.84888C33.281 2.88403 32.0271 3.22388 31.1951 3.83325L19.7927 9.93872L13.4529 18.5625C12.117 20.625 13.0662 24.6094 17.2381 22.0547L21.8084 16.0313C27.6091 11.0286 39.4451 13.3243 33.8318 23.3672C31.0779 29.1797 32.367 32.0157 35.9177 33.211L37.5349 27.7735C40.3357 21.4688 45.5623 20.3321 45.3513 15.2461L57.9138 16.1485L57.7966 3.01294L35.0271 2.84888ZM28.6873 14.9649C26.6482 14.9297 24.6443 15.7735 23.1912 16.9922L18.6091 23.0157C19.8631 24.0118 21.1287 23.4727 22.3826 22.2657C23.8591 23.0157 25.0076 21.8555 25.9451 19.5352C26.3318 17.9532 26.906 16.8399 28.6873 14.9649ZM19.3591 26.2149C19.3123 26.2149 19.2537 26.2149 19.2068 26.2266C18.8201 26.3086 18.3631 26.7188 18.0584 27.6563C17.742 28.5938 17.6716 29.9297 17.9529 31.3594C18.2341 32.7774 18.8201 33.9844 19.4763 34.7344C20.1091 35.4727 20.6951 35.6836 21.0818 35.6016C21.4802 35.5313 21.9256 35.1094 22.2302 34.1836C22.5466 33.2461 22.6287 31.8985 22.3474 30.4805C22.0545 29.0508 21.4685 27.8438 20.824 27.1055C20.2615 26.4493 19.7459 26.2149 19.3591 26.2149ZM29.0388 38.7305C28.1131 38.7422 26.9529 39.0352 25.8162 39.586C24.5154 40.2305 23.4959 41.1211 22.9451 41.9415C22.3943 42.75 22.3474 43.3594 22.5232 43.7227C22.699 44.0743 23.2146 44.4141 24.199 44.461C25.1834 44.5196 26.5076 44.25 27.8084 43.6055C29.1091 42.961 30.1287 42.0821 30.6795 41.2618C31.2302 40.4532 31.2771 39.8321 31.1013 39.4805C30.9256 39.1172 30.4099 38.7891 29.4256 38.7422C29.2966 38.7305 29.1795 38.7305 29.0388 38.7305ZM17.6013 49.9336C17.0506 49.9454 16.5466 50.0274 16.1013 50.1563C15.1052 50.4493 14.531 50.9766 14.3435 51.5977C14.1443 52.2305 14.3435 52.9805 15.0115 53.7891C15.6912 54.586 16.8279 55.3477 18.2341 55.7696C19.6287 56.1915 20.9881 56.1797 21.9959 55.875C23.0037 55.5821 23.5779 55.0547 23.7654 54.4336C23.9529 53.8008 23.7654 53.0508 23.0857 52.2422C22.4177 51.4454 21.281 50.6836 19.8748 50.2618C19.0779 50.0274 18.3045 49.9219 17.6013 49.9336Z" fill="white"/>
</svg>
