<svg width="21" height="21" viewBox="0 0 21 21" fill="none" xmlns="http://www.w3.org/2000/svg">
<path d="M3.9375 3.9375C3.9375 2.48965 5.11465 1.3125 6.5625 1.3125H18.375C19.8229 1.3125 21 2.48965 21 3.9375V17.0625C21 18.5104 19.8229 19.6875 18.375 19.6875H3.28125C1.46836 19.6875 0 18.2191 0 16.4062V5.25C0 4.52402 0.586523 3.9375 1.3125 3.9375C2.03848 3.9375 2.625 4.52402 2.625 5.25V16.4062C2.625 16.7672 2.92031 17.0625 3.28125 17.0625C3.64219 17.0625 3.9375 16.7672 3.9375 16.4062V3.9375ZM6.5625 4.92188V8.20312C6.5625 8.74863 7.00137 9.1875 7.54688 9.1875H12.1406C12.6861 9.1875 13.125 8.74863 13.125 8.20312V4.92188C13.125 4.37637 12.6861 3.9375 12.1406 3.9375H7.54688C7.00137 3.9375 6.5625 4.37637 6.5625 4.92188ZM15.0938 4.59375C15.0938 4.95469 15.3891 5.25 15.75 5.25H17.7188C18.0797 5.25 18.375 4.95469 18.375 4.59375C18.375 4.23281 18.0797 3.9375 17.7188 3.9375H15.75C15.3891 3.9375 15.0938 4.23281 15.0938 4.59375ZM15.0938 8.53125C15.0938 8.89219 15.3891 9.1875 15.75 9.1875H17.7188C18.0797 9.1875 18.375 8.89219 18.375 8.53125C18.375 8.17031 18.0797 7.875 17.7188 7.875H15.75C15.3891 7.875 15.0938 8.17031 15.0938 8.53125ZM6.5625 12.4688C6.5625 12.8297 6.85781 13.125 7.21875 13.125H17.7188C18.0797 13.125 18.375 12.8297 18.375 12.4688C18.375 12.1078 18.0797 11.8125 17.7188 11.8125H7.21875C6.85781 11.8125 6.5625 12.1078 6.5625 12.4688ZM6.5625 16.4062C6.5625 16.7672 6.85781 17.0625 7.21875 17.0625H17.7188C18.0797 17.0625 18.375 16.7672 18.375 16.4062C18.375 16.0453 18.0797 15.75 17.7188 15.75H7.21875C6.85781 15.75 6.5625 16.0453 6.5625 16.4062Z" fill="white"/>
</svg>
