<svg width="45" height="44" viewBox="0 0 45 44" fill="none" xmlns="http://www.w3.org/2000/svg">
<g clip-path="url(#clip0_7_1299)">
<path d="M22.6699 44C34.8202 44 44.6699 34.1503 44.6699 22C44.6699 9.84974 34.8202 0 22.6699 0C10.5197 0 0.669922 9.84974 0.669922 22C0.669922 34.1503 10.5197 44 22.6699 44Z" fill="#8300C5"/>
<path d="M27.7125 20.985L17.3818 10.6095L30.5257 18.1672L27.7125 20.985ZM14.6856 10C14.0771 10.3188 13.6699 10.9002 13.6699 11.655V32.345C13.6699 33.0998 14.0771 33.6812 14.6856 34L26.6967 21.9977L14.6856 10ZM34.5887 20.5771L31.8316 18.9783L28.7563 22.0023L31.8316 25.0264L34.6448 23.4276C35.4874 22.7572 35.4874 21.2475 34.5887 20.5771ZM17.3818 33.3952L30.5257 25.8375L27.7125 23.0197L17.3818 33.3952Z" fill="white"/>
</g>
<defs>
<clipPath id="clip0_7_1299">
<rect width="44" height="44" fill="white" transform="translate(0.669922)"/>
</clipPath>
</defs>
</svg>
