<svg width="24" height="24" viewBox="0 0 24 24" fill="none" xmlns="http://www.w3.org/2000/svg">
<g clip-path="url(#clip0_64_118)">
<path d="M12 23.5C18.3513 23.5 23.5 18.3513 23.5 12C23.5 5.64873 18.3513 0.5 12 0.5C5.64873 0.5 0.5 5.64873 0.5 12C0.5 18.3513 5.64873 23.5 12 23.5Z" fill="#F0AD00" stroke="#F0AD00"/>
<path d="M6.79961 7.19971C6.13711 7.19971 5.59961 7.73721 5.59961 8.39971C5.59961 8.77721 5.77711 9.13221 6.07961 9.35971L11.5196 13.4398C11.8046 13.6523 12.1946 13.6523 12.4796 13.4398L17.9196 9.35971C18.2221 9.13221 18.3996 8.77721 18.3996 8.39971C18.3996 7.73721 17.8621 7.19971 17.1996 7.19971H6.79961ZM5.59961 9.99971V15.1998C5.59961 16.0823 6.31711 16.7998 7.19961 16.7998H16.7996C17.6821 16.7998 18.3996 16.0823 18.3996 15.1998V9.99971L12.9596 14.0798C12.3896 14.5073 11.6096 14.5073 11.0396 14.0798L5.59961 9.99971Z" fill="white"/>
</g>
<defs>
<clipPath id="clip0_64_118">
<rect width="24" height="24" fill="white"/>
</clipPath>
</defs>
</svg>
