<svg width="60" height="60" viewBox="0 0 60 60" fill="none" xmlns="http://www.w3.org/2000/svg">
<path fill-rule="evenodd" clip-rule="evenodd" d="M25 10H35C44.4275 10 49.1425 10 52.07 12.93C55 15.8575 55 20.5725 55 30C55 39.4275 55 44.1425 52.07 47.07C49.1425 50 44.4275 50 35 50H25C15.5725 50 10.8575 50 7.93 47.07C5 44.1425 5 39.4275 5 30C5 20.5725 5 15.8575 7.93 12.93C10.8575 10 15.5725 10 25 10ZM33.125 22.5C33.125 22.0027 33.3225 21.5258 33.6742 21.1742C34.0258 20.8225 34.5027 20.625 35 20.625H47.5C47.9973 20.625 48.4742 20.8225 48.8258 21.1742C49.1775 21.5258 49.375 22.0027 49.375 22.5C49.375 22.9973 49.1775 23.4742 48.8258 23.8258C48.4742 24.1775 47.9973 24.375 47.5 24.375H35C34.5027 24.375 34.0258 24.1775 33.6742 23.8258C33.3225 23.4742 33.125 22.9973 33.125 22.5ZM35.625 30C35.625 29.5027 35.8225 29.0258 36.1742 28.6742C36.5258 28.3225 37.0027 28.125 37.5 28.125H47.5C47.9973 28.125 48.4742 28.3225 48.8258 28.6742C49.1775 29.0258 49.375 29.5027 49.375 30C49.375 30.4973 49.1775 30.9742 48.8258 31.3258C48.4742 31.6775 47.9973 31.875 47.5 31.875H37.5C37.0027 31.875 36.5258 31.6775 36.1742 31.3258C35.8225 30.9742 35.625 30.4973 35.625 30ZM38.125 37.5C38.125 37.0027 38.3225 36.5258 38.6742 36.1742C39.0258 35.8225 39.5027 35.625 40 35.625H47.5C47.9973 35.625 48.4742 35.8225 48.8258 36.1742C49.1775 36.5258 49.375 37.0027 49.375 37.5C49.375 37.9973 49.1775 38.4742 48.8258 38.8258C48.4742 39.1775 47.9973 39.375 47.5 39.375H40C39.5027 39.375 39.0258 39.1775 38.6742 38.8258C38.3225 38.4742 38.125 37.9973 38.125 37.5ZM27.5 22.5C27.5 23.8261 26.9732 25.0979 26.0355 26.0355C25.0979 26.9732 23.8261 27.5 22.5 27.5C21.1739 27.5 19.9021 26.9732 18.9645 26.0355C18.0268 25.0979 17.5 23.8261 17.5 22.5C17.5 21.1739 18.0268 19.9021 18.9645 18.9645C19.9021 18.0268 21.1739 17.5 22.5 17.5C23.8261 17.5 25.0979 18.0268 26.0355 18.9645C26.9732 19.9021 27.5 21.1739 27.5 22.5ZM22.5 42.5C32.5 42.5 32.5 40.2625 32.5 37.5C32.5 34.7375 28.025 32.5 22.5 32.5C16.975 32.5 12.5 34.7375 12.5 37.5C12.5 40.2625 12.5 42.5 22.5 42.5Z" fill="white"/>
</svg>
