<svg width="45" height="44" viewBox="0 0 45 44" fill="none" xmlns="http://www.w3.org/2000/svg">
<g clip-path="url(#clip0_7_1290)">
<path d="M22.8965 0C10.7462 0 0.896484 9.84969 0.896484 22C0.896484 34.1502 10.7462 44 22.8965 44C35.0467 44 44.8965 34.1502 44.8965 22C44.8965 9.84969 35.0467 0 22.8965 0ZM33.0939 14.9618C32.7628 18.4406 31.3302 26.8824 30.6011 30.7787C30.2927 32.4273 29.6855 32.9802 29.0977 33.0341C27.8203 33.1518 26.8499 32.1898 25.6126 31.3788C23.6762 30.1096 22.5824 29.3194 20.7027 28.0808C18.5307 26.6495 19.9388 25.863 21.1766 24.5768C21.5006 24.2403 27.1297 19.1202 27.2387 18.6558C27.2523 18.5977 27.2653 18.3808 27.1363 18.2668C27.0074 18.1529 26.8178 18.1915 26.6807 18.2225C26.4865 18.2666 23.3933 20.3111 17.401 24.356C16.5231 24.959 15.7278 25.2527 15.0152 25.2373C14.2297 25.2203 12.7187 24.7933 11.5954 24.4281C10.2176 23.9802 9.12261 23.7435 9.21798 22.9829C9.26767 22.5867 9.81323 22.1815 10.8547 21.7675C17.2682 18.9732 21.5448 17.1311 23.6846 16.2409C29.7942 13.6996 31.0638 13.2582 31.8912 13.2435C32.0732 13.2404 32.4802 13.2855 32.7437 13.4994C32.919 13.6518 33.0308 13.8644 33.0568 14.0952C33.1016 14.3817 33.1138 14.6724 33.0939 14.9618Z" fill="#4D9FEB"/>
</g>
<defs>
<clipPath id="clip0_7_1290">
<rect width="44" height="44" fill="white" transform="translate(0.896484)"/>
</clipPath>
</defs>
</svg>
