<svg width="58" height="46" viewBox="0 0 58 46" fill="none" xmlns="http://www.w3.org/2000/svg">
<path d="M44.4688 20.3125C51.4121 20.3125 57.125 26.0254 57.125 32.9688C57.125 40 51.4121 45.625 44.4688 45.625C37.4375 45.625 31.8125 40 31.8125 32.9688C31.8125 26.0254 37.4375 20.3125 44.4688 20.3125ZM50.0938 33.584V32.4414C50.0938 32.002 49.6543 31.5625 49.2148 31.5625H45.875V26.8164C45.875 26.377 45.4355 26.0254 44.9961 26.0254H43.8535C43.4141 26.0254 43.0625 26.377 43.0625 26.8164V33.584C43.0625 34.0234 43.4141 34.375 43.8535 34.375H49.2148C49.6543 34.375 50.0938 34.0234 50.0938 33.584ZM44.4688 17.5C41.1289 17.5 38.0527 18.5547 35.5918 20.3125H0.875V13.2812C0.875 11.084 2.80859 9.0625 5.09375 9.0625H12.125V4.84375C12.125 2.64648 14.0586 0.625 16.3438 0.625H30.4062C32.6035 0.625 34.625 2.64648 34.625 4.84375V9.0625H41.6562C43.8535 9.0625 45.875 11.084 45.875 13.2812V17.5879C45.3477 17.5879 44.9082 17.5 44.4688 17.5ZM29 9.0625V6.25H17.75V9.0625H29ZM29.5273 28.75C29.1758 30.1562 29 31.5625 29 32.9688C29 35.5176 29.6152 37.8906 30.6699 40H5.09375C2.80859 40 0.875 38.0664 0.875 35.7812V23.125H17.75V27.3438C17.75 28.1348 18.3652 28.75 19.1562 28.75H29.5273Z" fill="white"/>
</svg>
