<svg width="45" height="44" viewBox="0 0 45 44" fill="none" xmlns="http://www.w3.org/2000/svg">
<g clip-path="url(#clip0_7_1294)">
<path d="M22.127 44C34.2772 44 44.127 34.1503 44.127 22C44.127 9.84974 34.2772 0 22.127 0C9.97669 0 0.126953 9.84974 0.126953 22C0.126953 34.1503 9.97669 44 22.127 44Z" fill="#BC342B"/>
<path d="M33.6255 16.6286C33.3495 15.5939 32.5362 14.7791 31.5036 14.5025C29.632 14 22.127 14 22.127 14C22.127 14 14.622 14 12.7504 14.5025C11.7178 14.7791 10.9045 15.5939 10.6285 16.6286C10.127 18.5041 10.127 22.417 10.127 22.417C10.127 22.417 10.127 26.3299 10.6285 28.2053C10.9045 29.24 11.7178 30.0209 12.7504 30.2975C14.622 30.8 22.127 30.8 22.127 30.8C22.127 30.8 29.632 30.8 31.5036 30.2975C32.5362 30.0209 33.3495 29.24 33.6255 28.2053C34.127 26.3299 34.127 22.417 34.127 22.417C34.127 22.417 34.127 18.5041 33.6255 16.6286ZM19.6724 25.9696V18.8643L25.9451 22.4171L19.6724 25.9696Z" fill="white"/>
</g>
<defs>
<clipPath id="clip0_7_1294">
<rect width="44" height="44" fill="white" transform="translate(0.126953)"/>
</clipPath>
</defs>
</svg>
